<svg width="184" height="85" viewBox="0 0 184 85" fill="none" xmlns="http://www.w3.org/2000/svg">
<path d="M67 5.66038C67 2.53424 69.5342 0 72.6604 0H111.34C114.466 0 117 2.53424 117 5.66038V44.3396C117 47.4658 114.466 50 111.34 50H72.6604C69.5342 50 67 47.4658 67 44.3396V5.66038Z" fill="#2C2F4A"/>
<path d="M80.4041 24.5185L80.0912 12.6523L103.799 25.5073V37.7384L80.4041 24.5185Z" fill="url(#paint0_linear_3163_1607)"/>
<path d="M104.142 17.4207V6.6701C104.142 6.03582 103.546 5.57752 102.947 5.75079L80.5388 12.2283C80.135 12.345 79.8564 12.7203 79.8564 13.1476V23.7381C79.8564 24.3698 80.4478 24.8277 81.0459 24.6591L103.454 18.3417C103.861 18.227 104.142 17.8502 104.142 17.4207Z" fill="url(#paint1_linear_3163_1607)"/>
<path d="M104.142 17.4207V6.6701C104.142 6.03582 103.546 5.57752 102.947 5.75079L80.5388 12.2283C80.135 12.345 79.8564 12.7203 79.8564 13.1476V23.7381C79.8564 24.3698 80.4478 24.8277 81.0459 24.6591L103.454 18.3417C103.861 18.227 104.142 17.8502 104.142 17.4207Z" fill="url(#paint2_linear_3163_1607)"/>
<path d="M104.142 37.0117V26.2611C104.142 25.6268 103.546 25.1685 102.947 25.3418L80.5388 31.8193C80.135 31.936 79.8564 32.3113 79.8564 32.7386V43.3291C79.8564 43.9608 80.4478 44.4187 81.0459 44.2501L103.454 37.9327C103.861 37.818 104.142 37.4413 104.142 37.0117Z" fill="url(#paint3_linear_3163_1607)"/>
<path d="M104.142 37.0117V26.2611C104.142 25.6268 103.546 25.1685 102.947 25.3418L80.5388 31.8193C80.135 31.936 79.8564 32.3113 79.8564 32.7386V43.3291C79.8564 43.9608 80.4478 44.4187 81.0459 44.2501L103.454 37.9327C103.861 37.818 104.142 37.4413 104.142 37.0117Z" fill="url(#paint4_linear_3163_1607)"/>
<path d="M25.2728 71.6728C25.2728 68.3533 28.0749 66 32.0176 66C35.9604 66 38.4401 68.1799 38.4401 71.648H34.4477C34.4477 70.3598 33.4806 69.5671 31.968 69.5671C30.3314 69.5671 29.2899 70.3103 29.2899 71.5241C29.2899 72.6389 29.8603 73.1838 31.1497 73.4563L33.9022 74.0261C37.1754 74.6949 38.7376 76.2555 38.7376 79.1538C38.7376 82.6962 35.9604 85 31.7448 85C27.6533 85 25 82.7953 25 79.352H28.9923C28.9923 80.6897 29.9842 81.4329 31.7696 81.4329C33.5798 81.4329 34.7205 80.7145 34.7205 79.5502C34.7205 78.5346 34.2494 78.0143 33.0343 77.7666L30.2322 77.1969C26.959 76.528 25.2728 74.6701 25.2728 71.6728Z" fill="#2C2F4A"/>
<path d="M40.7371 70.0626C40.3259 70.0626 39.9926 69.7322 39.9926 69.3247V67.0847C39.9926 66.6772 40.3259 66.3468 40.7371 66.3468H53.6801C54.0913 66.3468 54.4246 66.6772 54.4246 67.0847V69.3247C54.4246 69.7322 54.0913 70.0626 53.6801 70.0626H49.2172V83.9401C49.2172 84.3476 48.8839 84.678 48.4727 84.678H45.9445C45.5333 84.678 45.2 84.3476 45.2 83.9401V70.0626H40.7371Z" fill="#2C2F4A"/>
<path d="M56.9556 77.7914V67.0847C56.9556 66.6772 57.2889 66.3468 57.7001 66.3468H60.2283C60.6395 66.3468 60.9728 66.6772 60.9728 67.0847V77.5189C60.9728 79.8227 62.2375 81.0861 64.494 81.0861C66.7753 81.0861 68.0648 79.7731 68.0648 77.5189V67.0847C68.0648 66.6772 68.3981 66.3468 68.8092 66.3468H71.3375C71.7486 66.3468 72.0819 66.6772 72.0819 67.0847V77.7914C72.0819 82.1512 69.1063 84.9752 64.494 84.9752C59.9065 84.9752 56.9556 82.176 56.9556 77.7914Z" fill="#2C2F4A"/>
<path d="M83.2136 84.678H76.7668C76.3557 84.678 76.0224 84.3476 76.0224 83.9401V67.0847C76.0224 66.6772 76.3557 66.3468 76.7668 66.3468H82.9656C88.3466 66.3468 92.091 70.1121 92.091 75.5619C92.091 80.9126 88.4458 84.678 83.2136 84.678ZM82.5688 70.0626H80.0395V80.9622H82.8168C85.9908 80.9622 87.8506 78.9557 87.8506 75.5619C87.8506 72.0939 85.8917 70.0626 82.5688 70.0626Z" fill="#2C2F4A"/>
<path d="M98.4375 77.7171L92.8317 67.4355C92.5637 66.9438 92.9229 66.3468 93.4867 66.3468H96.2715C96.5508 66.3468 96.8066 66.5017 96.934 66.7481L99.8013 72.292C100.099 72.8618 100.297 73.3077 100.496 73.7784C100.719 73.3325 100.917 72.8618 101.215 72.2673L104.082 66.747C104.209 66.5012 104.465 66.3468 104.744 66.3468H107.405C107.969 66.3468 108.328 66.9438 108.06 67.4355L102.455 77.7171V83.9401C102.455 84.3476 102.121 84.678 101.71 84.678H99.1819C98.7708 84.678 98.4375 84.3476 98.4375 83.9401V77.7171Z" fill="#2C2F4A"/>
<path d="M115.018 83.9401C115.018 84.3476 114.685 84.678 114.273 84.678H111.795C111.384 84.678 111.05 84.3476 111.05 83.9401V67.0847C111.05 66.6772 111.384 66.3468 111.795 66.3468H114.616C114.867 66.3468 115.101 66.4718 115.238 66.6794L122.755 78.0143V67.0847C122.755 66.6772 123.088 66.3468 123.499 66.3468H125.978C126.389 66.3468 126.722 66.6772 126.722 67.0847V83.9401C126.722 84.3476 126.389 84.678 125.978 84.678H123.156C122.905 84.678 122.672 84.5532 122.534 84.346L115.018 73.0352V83.9401Z" fill="#2C2F4A"/>
<path d="M142.447 83.9401C142.447 84.3476 142.114 84.678 141.702 84.678H131.537C131.126 84.678 130.792 84.3476 130.792 83.9401V67.0847C130.792 66.6772 131.126 66.3468 131.537 66.3468H141.702C142.114 66.3468 142.447 66.6772 142.447 67.0847V70.0626H134.809V73.6545H140.835C141.246 73.6545 141.579 73.9849 141.579 74.3924V76.4342C141.579 76.8417 141.246 77.1721 140.835 77.1721H134.809V80.9622H141.702C142.114 80.9622 142.447 81.2925 142.447 81.7001V83.9401Z" fill="#2C2F4A"/>
<path d="M145.312 70.0626C144.901 70.0626 144.568 69.7322 144.568 69.3247V67.0847C144.568 66.6772 144.901 66.3468 145.312 66.3468H158.256C158.667 66.3468 159 66.6772 159 67.0847V69.3247C159 69.7322 158.667 70.0626 158.256 70.0626H153.793V83.9401C153.793 84.3476 153.459 84.678 153.048 84.678H150.52C150.109 84.678 149.775 84.3476 149.775 83.9401V70.0626H145.312Z" fill="#2C2F4A"/>
<defs>
<linearGradient id="paint0_linear_3163_1607" x1="99.5739" y1="16.9792" x2="79.4513" y2="21.7579" gradientUnits="userSpaceOnUse">
<stop stop-color="#C15792"/>
<stop offset="1" stop-color="#283DFE"/>
</linearGradient>
<linearGradient id="paint1_linear_3163_1607" x1="104.11" y1="5.71387" x2="68.891" y2="21.14" gradientUnits="userSpaceOnUse">
<stop stop-color="#9B2064"/>
<stop offset="1" stop-color="#2C2F4A"/>
</linearGradient>
<linearGradient id="paint2_linear_3163_1607" x1="104.11" y1="5.71387" x2="68.891" y2="21.14" gradientUnits="userSpaceOnUse">
<stop stop-color="white"/>
<stop offset="1" stop-color="#D76BA7"/>
</linearGradient>
<linearGradient id="paint3_linear_3163_1607" x1="104.11" y1="23.4035" x2="80.0387" y2="44.1636" gradientUnits="userSpaceOnUse">
<stop stop-color="#9B2064"/>
<stop offset="1" stop-color="#2C2F4A"/>
</linearGradient>
<linearGradient id="paint4_linear_3163_1607" x1="104.11" y1="24.9963" x2="80.0387" y2="45.7564" gradientUnits="userSpaceOnUse">
<stop stop-color="white"/>
<stop offset="1" stop-color="#8589AC"/>
</linearGradient>
</defs>
</svg>
